# xmcd
#
# Track frame offsets: 
#        150
#        12108
#        26471
#        41406
#        54808
#        69818
#        83168
#        97883
#        109538
#        123048
#        137921
#        150998
#        164956
#        178236
#        191946
#        195796
#        209858
#        221298
#        236380
#        250142
#        263241
#        271371
#        281491
#        295471
#        306343
#        316081
#
# Disc length: 4363 seconds
#
# Revision: 3
# Processed by: cddbd v1.5.2PL0 Copyright (c) Steve Scherf et al.
# Submitted via: ExactAudioCopy v1.1
#
DISCID=6911091a
DTITLE=Charlie Parker - A Studio Chronicle 1940-1948 [CDC)
DYEAR=2003
DGENRE=Jazz
TTITLE0=Warming Up A Riff (mono)
TTITLE1=Billie's Bounce (mono)
TTITLE2=Now's The Time (mono)
TTITLE3=Thriving On A Riff (mono)
TTITLE4=Meandering (mono)
TTITLE5=Ko-Ko (mono)
TTITLE6=Dizzy Boogie (mono)
TTITLE7=Flat Foot Floogie (mono)
TTITLE8=Poppity Pop (mono)
TTITLE9=Slim's Jam (mono)
TTITLE10=Diggin' Diz (mono)
TTITLE11=Moose The Mooche (mono)
TTITLE12=Yardbird Suite (mono)
TTITLE13=Ornithology (mono)
TTITLE14=The Famous Alto Break (mono)
TTITLE15=A Night In Tunisia (mono)
TTITLE16=Max Making Wax (mono)
TTITLE17=Lover Man (mono)
TTITLE18=The Gypsy (mono)
TTITLE19=Bebop (mono)
TTITLE20=Blues 1 And 2 (mono)
TTITLE21=Yardbird Suite (mono)
TTITLE22=Lullaby In Rhythm (Parts 1 and 2) (mono)
TTITLE23=Home Cooking I (mono)
TTITLE24=Home Cooking II (mono)
TTITLE25=Home Cooking III (mono)
EXTD=YEAR: 2003
EXTT0=
EXTT1=
EXTT2=
EXTT3=
EXTT4=
EXTT5=
EXTT6=
EXTT7=
EXTT8=
EXTT9=
EXTT10=
EXTT11=
EXTT12=
EXTT13=
EXTT14=
EXTT15=
EXTT16=
EXTT17=
EXTT18=
EXTT19=
EXTT20=
EXTT21=
EXTT22=
EXTT23=
EXTT24=
EXTT25=
PLAYORDER=
